PathFileType  4	(X/Y/Z) C:\Users\antoi\Documents\MyRepositories\mobilecap\ResultsAnalysis
DataRate	CameraRate	NumFrames	NumMarkers	Units	OrigDataRate	OrigDataStartFrame	OrigNumFrames
100.0	100.0	6	55	mm	100.0	170	679
Frame#	Time	r_knee			r_shank_antsup			r_ankle			r_calc			r_5meta			r_toe			L_knee			L_shank_antsup			L_ankle			L_calc			L_5meta			L_toe			r_mknee			r_mankle			L_mknee			L_mankle			r_sh2			r_sh3			r_sh4			L_sh2			L_sh3			r_thigh1			r_thigh2			r_thigh3			r_thigh4			r_thigh5			L_thigh1			L_thigh2			L_thigh3			L_thigh4			r.ASIS			r.PSIS			L.ASIS			L.PSIS			C7			R_Shoulder			L_Shoulder			R_Sternum			L_Sternum			R_humerus			R_elbow_med			R_elbow_lat			R_forearm			R_wrist_radius			R_wrist_ulna			L_humerus			L_elbow_med			L_elbow_lat			L_forearm			L_wrist_radius			L_wrist_ulna			R_HJC			L_HJC			R_HJC_reg			L_HJC_reg			
		X1	Y1	Z1	X2	Y2	Z2	X3	Y3	Z3	X4	Y4	Z4	X5	Y5	Z5	X6	Y6	Z6	X7	Y7	Z7	X8	Y8	Z8	X9	Y9	Z9	X10	Y10	Z10	X11	Y11	Z11	X12	Y12	Z12	X13	Y13	Z13	X14	Y14	Z14	X15	Y15	Z15	X16	Y16	Z16	X17	Y17	Z17	X18	Y18	Z18	X19	Y19	Z19	X20	Y20	Z20	X21	Y21	Z21	X22	Y22	Z22	X23	Y23	Z23	X24	Y24	Z24	X25	Y25	Z25	X26	Y26	Z26	X27	Y27	Z27	X28	Y28	Z28	X29	Y29	Z29	X30	Y30	Z30	X31	Y31	Z31	X32	Y32	Z32	X33	Y33	Z33	X34	Y34	Z34	X35	Y35	Z35	X36	Y36	Z36	X37	Y37	Z37	X38	Y38	Z38	X39	Y39	Z39	X40	Y40	Z40	X41	Y41	Z41	X42	Y42	Z42	X43	Y43	Z43	X44	Y44	Z44	X45	Y45	Z45	X46	Y46	Z46	X47	Y47	Z47	X48	Y48	Z48	X49	Y49	Z49	X50	Y50	Z50	X51	Y51	Z51	X52	Y52	Z52	X53	Y53	Z53	X54	Y54	Z54	X55	Y55	Z55	

170	1.69000000	-221.21114	473.92208	-434.14428	-189.89409	365.29983	-449.32321	-256.49393	89.95781	-466.22490	-302.48689	52.08907	-517.48149	-141.71430	39.93018	-434.78983	-105.50413	58.68024	-476.86441	-216.09572	475.96590	-787.43731	-181.08162	374.99135	-747.90820	-256.31490	88.16231	-770.91925	-296.53794	51.48890	-719.80093	-134.25542	36.49868	-789.12146	-94.73379	58.38512	-736.04080	-240.19420	473.96351	-566.65894	-231.19427	108.05138	-544.06555	-224.56043	474.44995	-655.51101	-226.62588	103.67874	-689.72638	-199.09978	253.43060	-460.01099	-245.13662	363.12904	-397.07745	-270.31241	256.96526	-417.91239	-235.50264	398.25112	-816.03065	-246.68410	277.49602	-827.30888	-124.24968	776.85418	-452.78109	-124.39410	665.60881	-448.49561	-168.29954	641.62087	-404.36926	-226.30878	775.09793	-404.38277	-221.58439	659.64506	-399.55258	-131.54815	767.79617	-784.62023	-126.36840	629.01656	-783.18223	-236.83483	769.50517	-823.76826	-233.71193	628.73585	-816.14268	-114.28874	939.32653	-486.53728	-293.47730	988.63450	-561.00620	-102.23534	938.02281	-732.96693	-291.86053	988.13049	-677.43122	-290.67034	1435.46657	-621.59282	-235.47398	1408.77130	-465.90519	-231.19543	1413.72922	-779.14628	-164.45937	1399.61291	-605.76755	-161.92918	1396.71776	-643.61263	-203.73813	1281.89025	-403.62351	-256.76885	1081.22258	-457.65443	-229.64684	1087.30568	-387.77678	-167.91386	977.61747	-370.57729	-126.16946	880.99100	-374.48381	-157.44088	870.38453	-357.73664	-197.66696	1262.28545	-838.53639	-245.14875	1071.96634	-774.43616	-228.44242	1077.19585	-846.80408	-171.94244	995.72135	-863.32195	-122.83907	872.76100	-849.45021	-148.85667	864.53837	-867.68856	-205.39604	870.93868	-515.97385	-193.41526	866.48747	-704.91985	-185.82543	871.99932	-521.81105	-183.56431	871.29445	-684.63410	
171	1.70000000	-221.22718	473.93482	-434.13893	-189.96235	365.30406	-449.26056	-256.50447	89.89560	-466.29178	-302.46857	52.07873	-517.42699	-141.72794	39.94130	-434.78989	-105.49560	58.69523	-476.85995	-216.08518	475.95147	-787.43260	-181.06868	374.99773	-747.95587	-256.31673	88.16729	-770.91238	-296.37076	51.20216	-719.58728	-134.27019	36.47948	-789.08612	-94.71681	58.38535	-736.03824	-240.20323	473.95384	-566.64010	-231.19292	108.04900	-544.06923	-224.59044	474.43135	-655.56535	-226.57874	103.69687	-689.62776	-199.11943	253.40887	-460.01325	-245.14661	363.16754	-397.09513	-270.31196	256.96128	-417.91043	-235.45371	398.21623	-815.98020	-246.63341	277.43400	-827.42135	-124.27611	776.85274	-452.78959	-124.39085	665.71210	-448.66162	-168.31867	641.65354	-404.36813	-226.34055	775.09219	-404.33088	-221.55684	659.65309	-399.47338	-131.55504	767.79388	-784.61639	-126.37414	629.01286	-783.17557	-236.85435	769.48786	-823.77878	-233.70479	628.73216	-816.17275	-114.32805	939.31173	-486.56088	-293.50739	988.63550	-561.01486	-102.25469	938.04579	-732.96723	-291.89621	988.12098	-677.43228	-290.75351	1435.41178	-621.56357	-235.55749	1408.74314	-465.84443	-231.26221	1413.71793	-779.13458	-164.56291	1399.60856	-605.75134	-161.97164	1396.66592	-643.60455	-203.80442	1281.87517	-403.63953	-256.83327	1081.25134	-457.72994	-229.70317	1087.26493	-387.83172	-167.97870	977.58090	-370.62621	-126.21601	880.95320	-374.54051	-157.46789	870.31129	-357.82462	-197.72349	1262.28456	-838.55407	-245.39952	1071.95082	-774.43520	-228.52540	1077.22347	-846.86064	-172.01572	995.71219	-863.34529	-122.93728	872.78572	-849.58787	-148.99280	864.57022	-867.86213	-205.42493	870.92699	-515.99305	-193.43858	866.49817	-704.93922	-185.85792	872.02816	-521.82090	-183.60471	871.30860	-684.62915	
172	1.71000000	-221.25387	473.94349	-434.15447	-189.98809	365.28635	-449.25655	-256.54591	89.86414	-466.35568	-302.44559	52.07325	-517.36684	-141.72746	39.93653	-434.80937	-105.48826	58.70159	-476.86415	-216.07291	475.91473	-787.41555	-181.05933	375.00423	-747.98628	-256.32482	88.16993	-770.90798	-295.99429	50.60232	-719.16847	-134.27399	36.47482	-789.07540	-94.70766	58.39056	-736.06466	-240.22642	473.94654	-566.63281	-231.19386	108.04696	-544.07400	-224.62652	474.40294	-655.62001	-226.49054	103.73617	-689.57615	-199.35648	253.67794	-459.97748	-245.16304	363.20980	-397.09360	-270.31870	256.95981	-417.91591	-235.41996	398.18535	-815.96314	-246.65395	277.39715	-827.49734	-124.29337	776.86953	-452.84074	-124.41774	665.77335	-448.76309	-168.36054	641.68559	-404.41742	-226.38285	775.14056	-404.25956	-221.50718	659.66002	-399.42388	-131.56273	767.79173	-784.61403	-126.37801	629.01321	-783.16227	-236.85116	769.47914	-823.79008	-233.69396	628.72538	-816.19523	-114.35750	939.32072	-486.58792	-293.53694	988.64085	-561.02742	-102.27010	938.03170	-732.95281	-291.90174	988.12169	-677.44565	-290.89648	1435.44002	-621.55393	-235.66725	1408.72965	-465.77734	-231.34693	1413.69544	-779.13456	-164.64951	1399.61760	-605.75043	-162.01385	1396.63871	-643.62950	-203.88175	1281.83561	-403.65160	-256.93987	1081.29359	-457.84938	-229.76754	1087.21661	-387.89787	-168.03273	977.59423	-370.63539	-126.26331	880.90290	-374.62086	-157.50371	870.30496	-357.86150	-197.77788	1262.28784	-838.57365	-245.43844	1071.91161	-774.43918	-228.61218	1077.23637	-846.89131	-172.12624	995.69218	-863.41443	-123.04704	872.75089	-849.66793	-149.07988	864.57992	-867.96965	-205.45393	870.93465	-515.99617	-193.45724	866.49151	-704.94135	-185.89266	872.03865	-521.85391	-183.60627	871.31274	-684.63488	
173	1.72000000	-221.29249	473.92731	-434.20455	-189.97585	365.27560	-449.29042	-256.56765	89.91635	-466.33615	-302.44279	52.09640	-517.35403	-141.71701	39.94562	-434.83375	-105.49069	58.69649	-476.86755	-216.06173	475.87795	-787.41290	-181.04884	374.98112	-747.97080	-256.32994	88.16770	-770.91514	-296.00201	50.57881	-719.19642	-134.27483	36.48233	-789.08548	-94.71471	58.40503	-736.08610	-240.30040	473.97337	-566.72142	-231.19533	108.04627	-544.07466	-224.64468	474.40953	-655.61754	-226.45186	103.74639	-689.63058	-199.39913	253.72609	-460.00145	-245.18221	363.20244	-397.09598	-270.32428	256.96035	-417.92209	-235.40384	398.16049	-816.01078	-246.64116	277.34821	-827.46275	-124.32196	776.86075	-452.88520	-124.45884	665.79032	-448.79643	-168.37809	641.68535	-404.48467	-226.42899	775.16924	-404.24855	-221.54691	659.64764	-399.47414	-131.56346	767.79290	-784.61132	-126.37817	629.01367	-783.15688	-236.82616	769.46964	-823.80537	-233.68065	628.71988	-816.21026	-114.38063	939.35333	-486.62028	-293.56742	988.64044	-561.03559	-102.28848	938.01280	-732.94572	-291.91006	988.12852	-677.46791	-291.01239	1435.48587	-621.55423	-235.75417	1408.71237	-465.80216	-231.43692	1413.67270	-779.18436	-164.72409	1399.62016	-605.74366	-162.07170	1396.65176	-643.65770	-203.96532	1281.81040	-403.62665	-257.01099	1081.32126	-457.91433	-229.82009	1087.17567	-387.95625	-168.07983	977.57667	-370.72709	-126.32359	880.85475	-374.72256	-157.55685	870.32579	-357.89993	-197.85798	1262.27234	-838.56332	-245.42381	1071.90310	-774.44783	-228.71044	1077.24958	-846.91632	-172.26161	995.68073	-863.53004	-123.11797	872.77133	-849.71558	-149.17828	864.52850	-868.03719	-205.47496	870.95442	-515.99629	-193.47500	866.48304	-704.94060	-185.91115	872.03389	-521.89789	-183.59442	871.31830	-684.65281	
174	1.73000000	-221.31775	473.92176	-434.24063	-189.97825	365.28875	-449.29046	-256.54973	89.99649	-466.26939	-302.45903	52.14033	-517.38065	-141.70974	39.95791	-434.85231	-105.48919	58.70398	-476.87437	-216.05862	475.87064	-787.41804	-181.03533	374.94852	-747.95433	-256.31954	88.15904	-770.92184	-296.37531	51.13773	-719.61539	-134.26842	36.49141	-789.07935	-94.71936	58.42365	-736.08505	-240.40548	474.02248	-566.86770	-231.19478	108.04499	-544.07158	-224.62737	474.43523	-655.58577	-226.51182	103.66719	-689.78530	-199.19921	253.47508	-460.07465	-245.19000	363.15125	-397.11484	-270.32201	256.95782	-417.92614	-235.38894	398.15962	-816.03395	-246.54288	277.28783	-827.35122	-124.37297	776.82618	-452.89428	-124.48120	665.81428	-448.82375	-168.35966	641.67265	-404.49469	-226.48761	775.16670	-404.28307	-221.71823	659.59879	-399.64763	-131.55387	767.79808	-784.60794	-126.37626	629.01794	-783.15678	-236.80578	769.46621	-823.82193	-233.66728	628.71949	-816.22788	-114.40889	939.37343	-486.64419	-293.60266	988.63369	-561.04167	-102.30770	938.04035	-732.95845	-291.95209	988.14449	-677.50808	-291.07838	1435.47134	-621.54350	-235.81719	1408.69202	-465.86071	-231.50800	1413.67501	-779.23704	-164.82797	1399.61337	-605.65753	-162.14736	1396.65445	-643.62463	-204.03304	1281.80495	-403.60621	-257.03797	1081.32231	-457.92982	-229.86763	1087.14886	-388.01733	-168.12951	977.51590	-370.88455	-126.39059	880.81512	-374.83641	-157.61004	870.31873	-357.96230	-197.98155	1262.25969	-838.51448	-245.49208	1071.88520	-774.44377	-228.83207	1077.26120	-846.95240	-172.39077	995.68337	-863.61671	-123.15130	872.86559	-849.74748	-149.28922	864.47057	-868.08799	-205.49788	870.96282	-516.02207	-193.49202	866.50289	-704.96627	-185.91617	872.02759	-521.92778	-183.60968	871.34398	-684.67587	
175	1.74000000	-221.32140	473.93493	-434.24969	-189.99659	365.29695	-449.27697	-256.50454	90.03479	-466.21854	-302.48396	52.15379	-517.43026	-141.70721	39.94532	-434.85844	-105.47807	58.74118	-476.89420	-216.04392	475.88813	-787.42031	-181.01654	374.93712	-747.98698	-256.30852	88.15195	-770.92248	-296.55551	51.42018	-719.80340	-134.25161	36.50726	-789.05820	-94.70779	58.43781	-736.09521	-240.47508	474.04437	-566.94140	-231.19083	108.04122	-544.06766	-224.63227	474.44169	-655.59035	-226.54610	103.57432	-689.86325	-199.03030	253.28164	-460.09542	-245.20547	363.11489	-397.11397	-270.32590	256.95936	-417.93082	-235.35017	398.15301	-815.98442	-246.44336	277.26860	-827.26763	-124.42378	776.81286	-452.89507	-124.49158	665.84621	-448.85593	-168.35841	641.66171	-404.45190	-226.53504	775.14953	-404.36006	-221.79897	659.57278	-399.73066	-131.54469	767.80215	-784.60658	-126.37502	629.02264	-783.15230	-236.79917	769.46692	-823.83461	-233.65548	628.72101	-816.24901	-114.44646	939.37681	-486.66281	-293.63764	988.62929	-561.05198	-102.34908	938.06771	-732.93897	-292.00848	988.16726	-677.55825	-291.12010	1435.41228	-621.55855	-235.89693	1408.66248	-465.84060	-231.56168	1413.69768	-779.23431	-164.95739	1399.62360	-605.56532	-162.24273	1396.64844	-643.60238	-204.08364	1281.76979	-403.62108	-257.11230	1081.33697	-457.99300	-229.93218	1087.12122	-388.08968	-168.18531	977.47012	-370.97322	-126.45297	880.77126	-374.94684	-157.65813	870.30255	-358.00545	-198.11926	1262.28231	-838.48885	-245.63948	1071.82659	-774.43759	-228.95488	1077.25223	-846.95787	-172.50288	995.69584	-863.65349	-123.21688	872.94029	-849.79782	-149.38061	864.46403	-868.13548	-205.54311	870.96599	-516.04567	-193.52400	866.52365	-704.98944	-185.93008	872.02566	-521.94092	-183.65463	871.38032	-684.66427	
